<svg xmlns="http://www.w3.org/2000/svg" xmlns:xlink="http://www.w3.org/1999/xlink" viewBox="0 0 575.18 428.85"><defs><linearGradient id="a" x1="-26.49" y1="-1.51" x2="151.16" y2="669.86" gradientUnits="userSpaceOnUse"><stop offset="0" stop-color="#ffe700"/><stop offset="1" stop-color="#fd5600"/></linearGradient><linearGradient id="b" x1="86.89" y1="-31.51" x2="264.54" y2="639.86" xlink:href="#a"/><linearGradient id="c" x1="200.28" y1="-61.51" x2="377.93" y2="609.86" xlink:href="#a"/><linearGradient id="d" x1="373.15" y1="-108.57" x2="550.79" y2="562.8" xlink:href="#a"/></defs><title>black</title><rect y="101.55" width="61.3" height="225.74" rx="28.86" style="fill:url(#a)"/><rect x="121.3" width="61.33" height="428.85" rx="28.87" style="fill:url(#b)"/><rect x="242.63" y="44" width="61.33" height="340.85" rx="28.87" style="fill:url(#c)"/><path d="M562.38,187.45,402.33,95A25.58,25.58,0,0,0,364,117.19V302a25.58,25.58,0,0,0,38.37,22.15l160.05-92.41A25.57,25.57,0,0,0,562.38,187.45ZM490,226.2l-49.62,28.65a19.27,19.27,0,0,1-28.9-16.69V180.87a19.27,19.27,0,0,1,28.9-16.69L490,192.83A19.26,19.26,0,0,1,490,226.2Z" style="fill:url(#d)"/></svg>